# Created by Kenney (www.kenney.nl)

mtllib Castle.mtl

g mergedBlocks

v 0.4950142 -0.75 0.4963036
v 0.4950142 -0.75 -0.5036964
v -0.5049858 -0.75 0.4963036
v -0.5049858 -0.75 -0.5036964
v -0.5049858 0.25 -0.5036964
v -0.5049858 0.25 0.4963036
v 0.4950142 0.25 -0.5036964
v 0.4950142 0.25 0.4963036
v -0.2949858 0.2499999 0.1497036
v -0.2949858 0.2499999 -0.1612964
v -0.4839858 0.2499999 0.1497036
v -0.4839858 0.2499999 -0.1612964
v -0.4839858 0.7499999 -0.1612964
v -0.4839858 0.7499999 0.1497036
v -0.2949858 0.7499999 -0.1612964
v -0.2949858 0.7499999 0.1497036
v -0.3049859 0.2499999 0.4963036
v -0.3049859 0.2499999 -0.5036964
v -0.5049859 0.2499999 0.4963036
v -0.5049859 0.2499999 -0.5036964
v -0.5049859 0.55 -0.5036964
v -0.5049859 0.55 0.4963036
v -0.3049859 0.55 -0.5036964
v -0.3049859 0.55 0.4963036
v -0.2949858 0.2499999 -0.3308964
v -0.2949858 0.2499999 -0.5036964
v -0.5049858 0.2499999 -0.3308964
v -0.5049858 0.2499999 -0.5036964
v -0.5049858 0.7499999 -0.5036964
v -0.5049858 0.7499999 -0.3308964
v -0.2949858 0.7499999 -0.5036964
v -0.2949858 0.7499999 -0.3308964
v -0.1555066 0.2499999 -0.3007757
v 0.1555352 0.2499999 -0.3007757
v -0.1555066 0.2499999 -0.4898175
v 0.1555352 0.2499999 -0.4898174
v 0.1555352 0.7499999 -0.4898174
v -0.1555066 0.7499999 -0.4898175
v 0.1555352 0.7499999 -0.3007757
v -0.1555066 0.7499999 -0.3007757
v 0.5050142 0.2499999 -0.2962963
v 0.5050142 0.2499999 -0.5036963
v 0.2950142 0.2499999 -0.2962963
v 0.2950142 0.2499999 -0.5036963
v 0.2950142 0.7499999 -0.5036963
v 0.2950142 0.7499999 -0.2962963
v 0.5050142 0.7499999 -0.5036963
v 0.5050142 0.7499999 -0.2962963
v -0.505056 0.2499999 -0.303679
v 0.4950843 0.2499999 -0.3036789
v -0.505056 0.2499999 -0.5037141
v 0.4950843 0.2499999 -0.503714
v 0.4950843 0.55 -0.503714
v -0.505056 0.55 -0.5037141
v 0.4950843 0.55 -0.3036789
v -0.505056 0.55 -0.303679
v -0.2949858 0.2499999 0.5037034
v -0.2949858 0.2499999 0.2963035
v -0.5049858 0.2499999 0.5037034
v -0.5049858 0.2499999 0.2963035
v -0.5049858 0.7499999 0.2963035
v -0.5049858 0.7499999 0.5037034
v -0.2949858 0.7499999 0.2963035
v -0.2949858 0.7499999 0.5037034
v 0.2950142 0.2499999 -0.1497966
v 0.2950142 0.2499999 0.1612034
v 0.4840142 0.2499999 -0.1497965
v 0.4840142 0.2499999 0.1612035
v 0.4840142 0.7499999 0.1612035
v 0.4840142 0.7499999 -0.1497965
v 0.2950142 0.7499999 0.1612034
v 0.2950142 0.7499999 -0.1497966
v 0.2950142 0.2499999 0.3309036
v 0.2950141 0.2499999 0.5037035
v 0.5050142 0.2499999 0.3309036
v 0.5050142 0.2499999 0.5037036
v 0.5050142 0.7499999 0.5037036
v 0.5050142 0.7499999 0.3309036
v 0.2950141 0.7499999 0.5037035
v 0.2950142 0.7499999 0.3309036
v 0.5050557 0.2499999 0.3036932
v -0.4950274 0.2499999 0.3036934
v 0.5050557 0.2499999 0.503714
v -0.4950274 0.2499999 0.5037141
v -0.4950274 0.55 0.5037141
v 0.5050557 0.55 0.503714
v -0.4950274 0.55 0.3036934
v 0.5050557 0.55 0.3036932
v 0.3050141 0.2499999 -0.4962964
v 0.305014 0.2499999 0.5037036
v 0.5050141 0.2499999 -0.4962964
v 0.505014 0.2499999 0.5037036
v 0.505014 0.55 0.5037036
v 0.5050141 0.55 -0.4962964
v 0.305014 0.55 0.5037036
v 0.3050141 0.55 -0.4962964
v -0.5049858 0.2499999 0.2963034
v -0.2949858 0.2499999 0.2963035
v -0.2949858 0.7499999 0.2963035
v -0.5049858 0.7499999 0.2963034
v 0.1555211 0.2499999 0.3006968
v -0.1554925 0.2499999 0.3006968
v 0.1555211 0.2499999 0.4897104
v -0.1554925 0.2499999 0.4897104
v -0.1554925 0.7499999 0.4897104
v 0.1555211 0.7499999 0.4897104
v -0.1554925 0.7499999 0.3006968
v 0.1555211 0.7499999 0.3006968
v 0.2950141 0.2499999 -0.2962963
v 0.5050142 0.2499999 -0.2962963
v 0.5050142 0.7499999 -0.2962963
v 0.2950141 0.7499999 -0.2962963

vn 0 -1 0
vn -1 0 0
vn 0 0 -1
vn 0 0 1
vn 1 0 0
vn 0 1 0
vn 1.192093E-07 0 -1
vn 1 0 1.192093E-07
vn -1 0 -1.192093E-07
vn -1.192093E-07 0 1
vn 1 0 8.742278E-08
vn -8.742278E-08 0 1
vn 8.742278E-08 0 -1
vn -1 0 -8.742278E-08
vn 1 0 8.742277E-08
vn -8.742278E-08 0 1
vn 8.742278E-08 0 -1
vn -1 0 -8.742277E-08
vn 1.192093E-07 0 1
vn -1 0 1.192093E-07
vn 1 0 -1.192093E-07
vn -1.192093E-07 0 -1

vt -0.4950142 -0.4963036
vt -0.4950142 0.5036964
vt 0.5049858 -0.4963036
vt 0.5049858 0.5036964
vt -0.5036964 -0.75
vt -0.5036964 0.25
vt 0.4963036 -0.75
vt 0.4963036 0.25
vt 0.5049858 -0.75
vt -0.4950142 -0.75
vt 0.5049858 0.25
vt -0.4950142 0.25
vt 0.4950142 -0.75
vt -0.5049858 -0.75
vt 0.4950142 0.25
vt -0.5049858 0.25
vt 0.5036964 0.25
vt 0.5036964 -0.75
vt -0.4963036 0.25
vt -0.4963036 -0.75
vt -0.4950142 -0.5036964
vt -0.4950142 0.4963036
vt 0.5049858 -0.5036964
vt 0.5049858 0.4963036
vt 0.2949858 -0.1497036
vt 0.2949858 0.1612964
vt 0.4839858 -0.1497036
vt 0.4839858 0.1612964
vt -0.1612964 0.2499999
vt -0.1612964 0.7499999
vt 0.1497036 0.2499999
vt 0.1497036 0.7499999
vt 0.4839858 0.2499999
vt 0.2949858 0.2499999
vt 0.4839858 0.7499999
vt 0.2949858 0.7499999
vt -0.2949858 0.2499999
vt -0.4839858 0.2499999
vt -0.2949858 0.7499999
vt -0.4839858 0.7499999
vt 0.1612964 0.7499999
vt 0.1612964 0.2499999
vt -0.1497036 0.7499999
vt -0.1497036 0.2499999
vt 0.2949858 -0.1612964
vt 0.2949858 0.1497036
vt 0.4839858 -0.1612964
vt 0.4839858 0.1497036
vt 0.3049859 -0.4963036
vt 0.3049859 0.5036964
vt 0.5049859 -0.4963036
vt 0.5049859 0.5036964
vt -0.5036964 0.2499999
vt -0.5036964 0.55
vt 0.4963036 0.2499999
vt 0.4963036 0.55
vt 0.5049859 0.2499999
vt 0.3049859 0.2499999
vt 0.5049859 0.55
vt 0.3049859 0.55
vt -0.3049859 0.2499999
vt -0.5049859 0.2499999
vt -0.3049859 0.55
vt -0.5049859 0.55
vt 0.5036964 0.55
vt 0.5036964 0.2499999
vt -0.4963036 0.55
vt -0.4963036 0.2499999
vt 0.3049859 -0.5036964
vt 0.3049859 0.4963036
vt 0.5049859 -0.5036964
vt 0.5049859 0.4963036
vt 0.2949858 0.3308964
vt 0.2949858 0.5036964
vt 0.5049858 0.3308964
vt -0.5036964 0.7499999
vt -0.3308964 0.2499999
vt -0.3308964 0.7499999
vt 0.5049858 0.2499999
vt 0.2949858 0.2499999
vt 0.5049858 0.7499999
vt 0.2949858 0.7499999
vt -0.2949858 0.2499999
vt -0.5049858 0.2499999
vt -0.2949858 0.7499999
vt -0.5049858 0.7499999
vt 0.5036964 0.7499999
vt 0.3308964 0.7499999
vt 0.3308964 0.2499999
vt 0.2949858 -0.5036964
vt 0.2949858 -0.3308964
vt 0.5049858 -0.3308964
vt 0.1555066 0.3007757
vt -0.1555352 0.3007757
vt 0.1555066 0.4898175
vt -0.1555352 0.4898174
vt -0.1555352 0.2499999
vt -0.1555352 0.7499999
vt 0.1555066 0.2499999
vt 0.1555066 0.7499999
vt 0.4898174 0.2499999
vt 0.3007757 0.2499999
vt 0.4898174 0.7499999
vt 0.3007757 0.7499999
vt -0.3007757 0.2499999
vt -0.4898175 0.2499999
vt -0.3007757 0.7499999
vt -0.4898175 0.7499999
vt 0.1555352 0.7499999
vt 0.1555352 0.2499999
vt -0.1555066 0.7499999
vt -0.1555066 0.2499999
vt -0.1555352 -0.3007757
vt 0.1555066 -0.3007757
vt -0.1555352 -0.4898174
vt 0.1555066 -0.4898175
vt -0.5050142 0.2962963
vt -0.5050142 0.5036963
vt -0.2950142 0.2962963
vt -0.2950142 0.5036963
vt -0.5036963 0.2499999
vt -0.5036963 0.7499999
vt -0.2962963 0.2499999
vt -0.2962963 0.7499999
vt -0.2950142 0.2499999
vt -0.5050142 0.2499999
vt -0.2950142 0.7499999
vt -0.5050142 0.7499999
vt 0.5050142 0.2499999
vt 0.2950142 0.2499999
vt 0.5050142 0.7499999
vt 0.2950142 0.7499999
vt 0.5036963 0.7499999
vt 0.5036963 0.2499999
vt 0.2962963 0.7499999
vt 0.2962963 0.2499999
vt -0.5050142 -0.5036963
vt -0.5050142 -0.2962963
vt -0.2950142 -0.5036963
vt -0.2950142 -0.2962963
vt 0.505056 0.303679
vt -0.4950843 0.3036789
vt 0.505056 0.5037141
vt -0.4950843 0.503714
vt -0.4950843 0.2499999
vt -0.4950843 0.55
vt 0.505056 0.2499999
vt 0.505056 0.55
vt 0.503714 0.2499999
vt 0.3036789 0.2499999
vt 0.503714 0.55
vt 0.3036789 0.55
vt -0.303679 0.2499999
vt -0.5037141 0.2499999
vt -0.303679 0.55
vt -0.5037141 0.55
vt 0.4950843 0.55
vt 0.4950843 0.2499999
vt -0.505056 0.55
vt -0.505056 0.2499999
vt -0.4950843 -0.3036789
vt 0.505056 -0.303679
vt -0.4950843 -0.503714
vt 0.505056 -0.5037141
vt 0.2949858 -0.5037034
vt 0.2949858 -0.2963035
vt 0.5049858 -0.5037034
vt 0.5049858 -0.2963035
vt 0.2963035 0.2499999
vt 0.2963035 0.7499999
vt 0.5037034 0.2499999
vt 0.5037034 0.7499999
vt -0.2963035 0.7499999
vt -0.2963035 0.2499999
vt -0.5037034 0.7499999
vt -0.5037034 0.2499999
vt 0.2949858 0.2963035
vt 0.2949858 0.5037034
vt 0.5049858 0.2963035
vt 0.5049858 0.5037034
vt -0.2950142 0.1497966
vt -0.2950142 -0.1612034
vt -0.4840142 0.1497965
vt -0.4840142 -0.1612035
vt -0.1612035 0.2499999
vt -0.1612035 0.7499999
vt 0.1497965 0.2499999
vt 0.1497965 0.7499999
vt 0.4840142 0.2499999
vt 0.2950142 0.2499999
vt 0.4840142 0.7499999
vt 0.2950142 0.7499999
vt -0.2950142 0.2499999
vt -0.4840142 0.2499999
vt -0.2950142 0.7499999
vt -0.4840142 0.7499999
vt 0.1612034 0.7499999
vt 0.1612034 0.2499999
vt -0.1497966 0.7499999
vt -0.1497966 0.2499999
vt -0.2950142 0.1612034
vt -0.2950142 -0.1497966
vt -0.4840142 0.1612035
vt -0.4840142 -0.1497965
vt -0.2950142 -0.3309036
vt -0.2950141 -0.5037035
vt -0.5050142 -0.3309036
vt -0.5050141 -0.5037036
vt -0.5037036 0.2499999
vt -0.5037036 0.7499999
vt -0.3309036 0.2499999
vt -0.3309036 0.7499999
vt 0.5050141 0.2499999
vt 0.2950141 0.2499999
vt 0.5050141 0.7499999
vt 0.2950141 0.7499999
vt 0.5037035 0.7499999
vt 0.5037035 0.2499999
vt 0.3309036 0.7499999
vt 0.3309036 0.2499999
vt -0.2950141 0.5037035
vt -0.2950142 0.3309036
vt -0.5050141 0.5037036
vt -0.5050142 0.3309036
vt -0.5050557 -0.3036932
vt 0.4950274 -0.3036934
vt -0.5050557 -0.503714
vt 0.4950274 -0.5037141
vt -0.4950274 0.2499999
vt -0.4950274 0.55
vt 0.5050557 0.2499999
vt 0.5050557 0.55
vt 0.5037141 0.2499999
vt 0.3036934 0.2499999
vt 0.5037141 0.55
vt 0.3036934 0.55
vt -0.3036932 0.2499999
vt -0.503714 0.2499999
vt -0.3036932 0.55
vt -0.503714 0.55
vt 0.4950274 0.55
vt 0.4950274 0.2499999
vt -0.5050557 0.55
vt -0.5050557 0.2499999
vt 0.4950274 0.3036934
vt -0.5050557 0.3036932
vt 0.4950274 0.5037141
vt -0.5050557 0.503714
vt -0.3050141 0.4962964
vt -0.305014 -0.5037036
vt -0.5050141 0.4962964
vt -0.505014 -0.5037036
vt -0.5037036 0.55
vt 0.4962964 0.2499999
vt 0.4962964 0.55
vt 0.505014 0.2499999
vt 0.305014 0.2499999
vt 0.505014 0.55
vt 0.305014 0.55
vt -0.3050141 0.2499999
vt -0.5050141 0.2499999
vt -0.3050141 0.55
vt -0.5050141 0.55
vt 0.5037036 0.55
vt 0.5037036 0.2499999
vt -0.4962964 0.55
vt -0.4962964 0.2499999
vt -0.305014 0.5037036
vt -0.3050141 -0.4962964
vt -0.505014 0.5037036
vt -0.5050141 -0.4962964
vt 0.5049857 -0.2963034
vt 0.2949858 -0.2963035
vt 0.5049857 0.2499999
vt 0.2949858 0.2499999
vt 0.5049857 0.7499999
vt 0.2949858 0.7499999
vt 0.2963034 0.7499999
vt 0.2963034 0.2499999
vt 0.5049857 0.2963034
vt 0.2949858 0.2963035
vt -0.1555211 -0.3006968
vt 0.1554925 -0.3006968
vt -0.1555211 -0.4897104
vt 0.1554925 -0.4897104
vt -0.1554925 0.2499999
vt -0.1554925 0.7499999
vt 0.1555211 0.2499999
vt 0.1555211 0.7499999
vt 0.4897104 0.2499999
vt 0.3006968 0.2499999
vt 0.4897104 0.7499999
vt 0.3006968 0.7499999
vt -0.3006968 0.2499999
vt -0.4897104 0.2499999
vt -0.3006968 0.7499999
vt -0.4897104 0.7499999
vt 0.1554925 0.7499999
vt 0.1554925 0.2499999
vt -0.1555211 0.7499999
vt -0.1555211 0.2499999
vt 0.1554925 0.3006968
vt -0.1555211 0.3006968
vt 0.1554925 0.4897104
vt -0.1555211 0.4897104
vt -0.2950141 0.2962963
vt -0.5050141 0.2962963
vt 0.2962963 0.2499999
vt 0.2962963 0.7499999
vt -0.2950141 -0.2962963
vt -0.5050141 -0.2962963

usemtl _defaultMat(Clone)

f 3/3/1 2/2/1 1/1/1
f 2/2/1 3/3/1 4/4/1
f 3/7/2 5/6/2 4/5/2
f 5/6/2 3/7/2 6/8/2
f 5/11/3 2/10/3 4/9/3
f 2/10/3 5/11/3 7/12/3
f 8/15/4 3/14/4 1/13/4
f 3/14/4 8/15/4 6/16/4
f 8/19/5 2/18/5 7/17/5
f 2/18/5 8/19/5 1/20/5
f 5/23/6 8/22/6 7/21/6
f 8/22/6 5/23/6 6/24/6
f 11/27/1 10/26/1 9/25/1
f 10/26/1 11/27/1 12/28/1
f 11/31/2 13/30/2 12/29/2
f 13/30/2 11/31/2 14/32/2
f 13/35/3 10/34/3 12/33/3
f 10/34/3 13/35/3 15/36/3
f 16/39/4 11/38/4 9/37/4
f 11/38/4 16/39/4 14/40/4
f 16/43/5 10/42/5 15/41/5
f 10/42/5 16/43/5 9/44/5
f 13/47/6 16/46/6 15/45/6
f 16/46/6 13/47/6 14/48/6
f 19/51/1 18/50/1 17/49/1
f 18/50/1 19/51/1 20/52/1
f 19/55/2 21/54/2 20/53/2
f 21/54/2 19/55/2 22/56/2
f 21/59/3 18/58/3 20/57/3
f 18/58/3 21/59/3 23/60/3
f 24/63/4 19/62/4 17/61/4
f 19/62/4 24/63/4 22/64/4
f 24/67/5 18/66/5 23/65/5
f 18/66/5 24/67/5 17/68/5
f 21/71/6 24/70/6 23/69/6
f 24/70/6 21/71/6 22/72/6
f 27/75/1 26/74/1 25/73/1
f 26/74/1 27/75/1 28/4/1
f 27/77/2 29/76/2 28/53/2
f 29/76/2 27/77/2 30/78/2
f 29/81/3 26/80/3 28/79/3
f 26/80/3 29/81/3 31/82/3
f 32/85/4 27/84/4 25/83/4
f 27/84/4 32/85/4 30/86/4
f 32/88/5 26/66/5 31/87/5
f 26/66/5 32/88/5 25/89/5
f 29/23/6 32/91/6 31/90/6
f 32/91/6 29/23/6 30/92/6
f 35/95/1 34/94/1 33/93/1
f 34/94/1 35/95/1 36/96/1
f 35/99/7 37/98/7 36/97/7
f 37/98/7 35/99/7 38/100/7
f 37/103/8 34/102/8 36/101/8
f 34/102/8 37/103/8 39/104/8
f 40/107/9 35/106/9 33/105/9
f 35/106/9 40/107/9 38/108/9
f 40/111/10 34/110/10 39/109/10
f 34/110/10 40/111/10 33/112/10
f 37/115/6 40/114/6 39/113/6
f 40/114/6 37/115/6 38/116/6
f 43/119/1 42/118/1 41/117/1
f 42/118/1 43/119/1 44/120/1
f 43/123/2 45/122/2 44/121/2
f 45/122/2 43/123/2 46/124/2
f 45/127/3 42/126/3 44/125/3
f 42/126/3 45/127/3 47/128/3
f 48/131/4 43/130/4 41/129/4
f 43/130/4 48/131/4 46/132/4
f 48/135/5 42/134/5 47/133/5
f 42/134/5 48/135/5 41/136/5
f 45/139/6 48/138/6 47/137/6
f 48/138/6 45/139/6 46/140/6
f 51/143/1 50/142/1 49/141/1
f 50/142/1 51/143/1 52/144/1
f 51/147/7 53/146/7 52/145/7
f 53/146/7 51/147/7 54/148/7
f 53/151/8 50/150/8 52/149/8
f 50/150/8 53/151/8 55/152/8
f 56/155/9 51/154/9 49/153/9
f 51/154/9 56/155/9 54/156/9
f 56/159/10 50/158/10 55/157/10
f 50/158/10 56/159/10 49/160/10
f 53/163/6 56/162/6 55/161/6
f 56/162/6 53/163/6 54/164/6
f 59/167/1 58/166/1 57/165/1
f 58/166/1 59/167/1 60/168/1
f 59/171/2 61/170/2 60/169/2
f 61/170/2 59/171/2 62/172/2
f 61/81/3 58/80/3 60/79/3
f 58/80/3 61/81/3 63/82/3
f 64/85/4 59/84/4 57/83/4
f 59/84/4 64/85/4 62/86/4
f 64/175/5 58/174/5 63/173/5
f 58/174/5 64/175/5 57/176/5
f 61/179/6 64/178/6 63/177/6
f 64/178/6 61/179/6 62/180/6
f 67/183/1 66/182/1 65/181/1
f 66/182/1 67/183/1 68/184/1
f 67/187/11 69/186/11 68/185/11
f 69/186/11 67/187/11 70/188/11
f 69/191/12 66/190/12 68/189/12
f 66/190/12 69/191/12 71/192/12
f 72/195/13 67/194/13 65/193/13
f 67/194/13 72/195/13 70/196/13
f 72/199/14 66/198/14 71/197/14
f 66/198/14 72/199/14 65/200/14
f 69/203/6 72/202/6 71/201/6
f 72/202/6 69/203/6 70/204/6
f 75/207/1 74/206/1 73/205/1
f 74/206/1 75/207/1 76/208/1
f 75/211/15 77/210/15 76/209/15
f 77/210/15 75/211/15 78/212/15
f 77/215/16 74/214/16 76/213/16
f 74/214/16 77/215/16 79/216/16
f 80/127/17 75/126/17 73/125/17
f 75/126/17 80/127/17 78/128/17
f 80/219/18 74/218/18 79/217/18
f 74/218/18 80/219/18 73/220/18
f 77/223/6 80/222/6 79/221/6
f 80/222/6 77/223/6 78/224/6
f 83/227/1 82/226/1 81/225/1
f 82/226/1 83/227/1 84/228/1
f 83/231/19 85/230/19 84/229/19
f 85/230/19 83/231/19 86/232/19
f 85/235/20 82/234/20 84/233/20
f 82/234/20 85/235/20 87/236/20
f 88/239/21 83/238/21 81/237/21
f 83/238/21 88/239/21 86/240/21
f 88/243/22 82/242/22 87/241/22
f 82/242/22 88/243/22 81/244/22
f 85/247/6 88/246/6 87/245/6
f 88/246/6 85/247/6 86/248/6
f 91/251/1 90/250/1 89/249/1
f 90/250/1 91/251/1 92/252/1
f 91/254/11 93/253/11 92/209/11
f 93/253/11 91/254/11 94/255/11
f 93/258/16 90/257/16 92/256/16
f 90/257/16 93/258/16 95/259/16
f 96/262/17 91/261/17 89/260/17
f 91/261/17 96/262/17 94/263/17
f 96/266/14 90/265/14 95/264/14
f 90/265/14 96/266/14 89/267/14
f 93/270/6 96/269/6 95/268/6
f 96/269/6 93/270/6 94/271/6
f 98/273/1 59/167/1 97/272/1
f 59/167/1 98/273/1 57/165/1
f 98/174/11 64/175/11 57/176/11
f 64/175/11 98/174/11 99/173/11
f 64/85/16 59/84/16 57/83/16
f 59/84/16 64/85/16 62/86/16
f 100/276/17 98/275/17 97/274/17
f 98/275/17 100/276/17 99/277/17
f 100/278/14 59/171/14 62/172/14
f 59/171/14 100/278/14 97/279/14
f 64/178/6 100/280/6 62/180/6
f 100/280/6 64/178/6 99/281/6
f 103/284/1 102/283/1 101/282/1
f 102/283/1 103/284/1 104/285/1
f 103/288/19 105/287/19 104/286/19
f 105/287/19 103/288/19 106/289/19
f 105/292/20 102/291/20 104/290/20
f 102/291/20 105/292/20 107/293/20
f 108/296/21 103/295/21 101/294/21
f 103/295/21 108/296/21 106/297/21
f 108/300/22 102/299/22 107/298/22
f 102/299/22 108/300/22 101/301/22
f 105/304/6 108/303/6 107/302/6
f 108/303/6 105/304/6 106/305/6
f 42/118/1 109/306/1 44/120/1
f 109/306/1 42/118/1 110/307/1
f 42/134/11 111/309/11 110/308/11
f 111/309/11 42/134/11 47/133/11
f 111/215/16 109/214/16 110/213/16
f 109/214/16 111/215/16 112/216/16
f 45/127/17 42/126/17 44/125/17
f 42/126/17 45/127/17 47/128/17
f 45/122/14 109/123/14 112/124/14
f 109/123/14 45/122/14 44/121/14
f 111/311/6 45/139/6 112/310/6
f 45/139/6 111/311/6 47/137/6

