# Created by Kenney (www.kenney.nl)

mtllib treasure_chest_top.mtl

g mergedBlocks

v 0.9999604 -0.1087508 -0.3454657
v -1.000058 -0.1087508 -0.3454657
v 0.9999604 -0.2381614 -0.3625035
v -1.000058 -0.2381614 -0.3625035
v 0.9999604 -0.3675719 -0.3454667
v -1.000058 -0.3675719 -0.3454667
v 0.9999604 0.01184089 -0.2955144
v -1.000058 0.01184089 -0.2955144
v 0.9999604 -0.4881633 -0.2955163
v -1.000058 -0.4881633 -0.2955163
v 0.9999604 0.1153955 -0.2160538
v -1.000058 0.1153955 -0.2160538
v 0.9999604 0.1948558 -0.1124988
v -1.000058 0.1948558 -0.1124988
v 0.9999604 0.2448069 0.008093424
v -1.000058 0.2448069 0.008093424
v 0.9999604 0.2618446 0.1375046
v -1.000058 0.2618446 0.1375046
v 0.9999604 0.2448078 0.2669157
v -1.000058 0.2448078 0.2669157
v -1.000058 0.1948577 0.3875076
v 0.9999604 0.1948577 0.3875076
v -1.000058 0.1153981 0.4910619
v 0.9999604 0.1153981 0.4910619
v -1.000058 0.0118441 0.5705218
v 0.9999604 0.0118441 0.5705218
v -1.100039 0.01854187 0.6821213
v -1.100039 -0.581462 -0.3571159
v -1.100039 0.105148 0.6321193
v -1.100039 -0.4948559 -0.4071179
v 1.100041 -0.4948562 -0.4071179
v 1.100041 0.1051477 0.6321193
v 1.100041 -0.5814623 -0.3571159
v 1.100041 0.01854163 0.6821213
v -0.7000396 -0.2381607 -0.4625047
v -0.9000416 -0.2381607 -0.4625047
v -0.7000396 -0.3934528 -0.4420607
v -0.9000416 -0.3934528 -0.4420607
v -0.9000416 -0.08286846 -0.4420592
v -0.7000396 -0.08286846 -0.4420592
v -0.7000396 0.06184112 -0.3821176
v -0.9000416 0.06184112 -0.3821176
v -0.7000396 0.1861063 -0.2867648
v -0.9000416 0.1861063 -0.2867648
v -0.7000396 -0.5381618 -0.3821205
v -0.9000416 -0.5381618 -0.3821205
v -0.7000396 0.2814585 -0.162499
v -0.9000416 0.2814585 -0.162499
v -0.7000396 0.3413998 -0.01778857
v -0.9000416 0.3413998 -0.01778857
v -0.7000396 0.3618451 0.1375046
v -0.9000416 0.3618451 0.1375046
v -0.7000396 0.3414013 0.2927975
v -0.9000416 0.3414013 0.2927975
v -0.9000416 0.2814615 0.4375073
v -0.7000396 0.2814615 0.4375073
v -0.9000416 0.1861104 0.5617722
v -0.7000396 0.1861104 0.5617722
v -0.9000416 0.06184626 0.6571238
v -0.7000396 0.06184626 0.6571238
v -0.7000396 -0.06020123 0.4457313
v -0.9000416 -0.06020123 0.4457313
v -0.7000396 -0.4161143 -0.1707281
v -0.9000416 -0.4161143 -0.1707281
v -0.7000396 0.07006848 -0.04045287
v -0.7000396 0.01350737 -0.1141649
v -0.9000416 0.07006848 -0.04045287
v -0.9000416 0.01350737 -0.1141649
v -0.7000396 -0.06020427 -0.1707263
v -0.9000416 -0.06020427 -0.1707263
v -0.9000416 0.1056245 0.04538651
v -0.7000396 0.1056245 0.04538651
v -0.9000416 0.1177523 0.1375034
v -0.7000396 0.1177523 0.1375034
v -0.9000416 0.1056254 0.2296201
v -0.7000396 0.1056254 0.2296201
v -0.7000396 0.07007021 0.3154591
v -0.9000416 0.07007021 0.3154591
v -0.7000396 0.01350987 0.3891706
v -0.9000416 0.01350987 0.3891706
v -0.7000396 -0.1460432 -0.2062825
v -0.9000416 -0.1460432 -0.2062825
v -0.9000416 -0.2381595 -0.2184104
v -0.7000396 -0.2381595 -0.2184104
v -0.9000416 -0.3302758 -0.2062834
v -0.7000396 -0.3302758 -0.2062834
v 0.8999605 -0.2381602 -0.4625037
v 0.6999588 -0.2381602 -0.4625037
v 0.8999605 -0.3934522 -0.4420596
v 0.6999588 -0.3934522 -0.4420596
v 0.6999588 -0.08286798 -0.4420584
v 0.8999605 -0.08286798 -0.4420584
v 0.8999605 0.06184143 -0.382117
v 0.6999588 0.06184143 -0.382117
v 0.8999605 0.1861064 -0.2867645
v 0.6999588 0.1861064 -0.2867645
v 0.8999605 -0.5381612 -0.3821194
v 0.6999588 -0.5381612 -0.3821194
v 0.8999605 0.2814585 -0.162499
v 0.6999588 0.2814585 -0.162499
v 0.8999605 0.3413996 -0.01778886
v 0.6999588 0.3413996 -0.01778886
v 0.8999605 0.3618448 0.137504
v 0.6999588 0.3618448 0.137504
v 0.8999605 0.3414009 0.2927968
v 0.6999588 0.3414009 0.2927968
v 0.6999588 0.2814609 0.4375064
v 0.8999605 0.2814609 0.4375064
v 0.6999588 0.1861098 0.5617712
v 0.8999605 0.1861098 0.5617712
v 0.6999588 0.06184563 0.6571227
v 0.8999605 0.06184563 0.6571227
v 0.8999605 -0.06020159 0.4457307
v 0.6999588 -0.06020159 0.4457307
v 0.8999605 -0.4161139 -0.1707275
v 0.6999588 -0.4161139 -0.1707275
v 0.8999605 0.07006848 -0.04045287
v 0.8999605 0.01350749 -0.1141648
v 0.6999588 0.07006848 -0.04045287
v 0.6999588 0.01350749 -0.1141648
v 0.8999605 -0.06020409 -0.170726
v 0.6999588 -0.06020409 -0.170726
v 0.6999588 0.1056244 0.04538634
v 0.8999605 0.1056244 0.04538634
v 0.6999588 0.1177521 0.1375031
v 0.8999605 0.1177521 0.1375031
v 0.6999588 0.1056251 0.2296197
v 0.8999605 0.1056251 0.2296197
v 0.8999605 0.07006988 0.3154586
v 0.6999588 0.07006988 0.3154586
v 0.8999605 0.01350951 0.3891701
v 0.6999588 0.01350951 0.3891701
v 0.8999605 -0.1460429 -0.2062821
v 0.6999588 -0.1460429 -0.2062821
v 0.6999588 -0.2381592 -0.2184098
v 0.8999605 -0.2381592 -0.2184098
v 0.6999588 -0.3302754 -0.2062828
v 0.8999605 -0.3302754 -0.2062828

vn 0 0.2588231 -0.9659247
vn 0 3.665732E-06 -1
vn 0 -0.258817 -0.9659264
vn 0 0.5000032 -0.8660235
vn 0 -0.3826824 -0.9238799
vn 0 0.7071082 -0.7071053
vn 0 0.8660254 -0.5000001
vn 0 0.9659253 -0.2588211
vn 0 1 -3.695519E-06
vn 0 0.9659269 0.258815
vn 0 0.8660272 0.4999969
vn 0 0.7071083 0.7071053
vn 0 0.6087623 0.7933527
vn 1 0 0
vn 0 -0.8660254 0.5000001
vn -1 0 0
vn -1 1.032383E-07 -5.960463E-08
vn 1.032383E-07 0.8660254 -0.5
vn -5.960463E-08 -0.5 -0.8660254
vn 5.960463E-08 0.5 0.8660254
vn -1.032383E-07 -0.8660254 0.5
vn 1 -1.032383E-07 5.960463E-08
vn 0 4.899553E-06 -1
vn 0 -0.2588163 -0.9659266
vn 0 0.2588245 -0.9659244
vn 0 0.5000042 -0.8660229
vn 0 0.7071088 -0.7071048
vn 0 -0.3826821 -0.92388
vn 0 0.9659251 -0.2588218
vn 0 1 -4.971051E-06
vn 0 0.9659273 0.2588135
vn 0 0.8660278 0.4999957
vn 0 0.7071088 0.7071048
vn 0 0.6087625 0.7933525
vn 0 -0.7071088 0.7071048
vn 0 -0.5000042 0.8660229
vn 0 -0.9659251 0.2588218
vn 0 -1 4.971051E-06
vn 0 -0.9659273 -0.2588135
vn 0 -0.8660278 -0.4999957
vn 0 -0.7071088 -0.7071048
vn 0 -0.6087625 -0.7933525
vn 0 -0.2588245 0.9659244
vn 0 -4.899553E-06 1
vn 0 0.2588163 0.9659266
vn 0 0.3826821 0.92388
vn 0 4.005468E-06 -1
vn 0 -0.2588168 -0.9659264
vn 0 0.2588235 -0.9659246
vn 0 0.5000035 -0.8660234
vn 0 0.7071084 -0.7071051
vn 0 -0.3826824 -0.92388
vn 0 0.9659252 -0.2588213
vn 0 1 -4.112738E-06
vn 0 0.965927 0.2588145
vn 0 0.8660275 0.4999965
vn 0 0.7071084 0.7071051
vn 0 0.6087623 0.7933527
vn 0 -0.7071084 0.7071051
vn 0 -0.5000035 0.8660234
vn 0 -0.9659252 0.2588213
vn 0 -1 4.112738E-06
vn 0 -0.965927 -0.2588145
vn 0 -0.8660275 -0.4999965
vn 0 -0.7071084 -0.7071051
vn 0 -0.6087623 -0.7933527
vn 0 -0.2588235 0.9659246
vn 0 -4.005468E-06 1
vn 0 0.2588168 0.9659264
vn 0 0.3826824 0.92388

vt -0.9999604 -0.1087508
vt 1.000058 -0.1087508
vt -0.9999604 -0.2381615
vt 1.000058 -0.2381615
vt -0.9999604 -0.367572
vt 1.000058 -0.367572
vt -0.9999604 0.0118409
vt 1.000058 0.0118409
vt -0.9999604 -0.4881633
vt 1.000058 -0.4881633
vt -0.9999604 0.1153954
vt 1.000058 0.1153954
vt -0.9999604 -0.2160537
vt -0.9999604 -0.1124988
vt 1.000058 -0.2160537
vt 1.000058 -0.1124988
vt -0.9999604 0.008093418
vt 1.000058 0.008093418
vt -0.9999604 0.1375046
vt 1.000058 0.1375046
vt -0.9999604 0.2669157
vt 1.000058 0.2669157
vt 1.000058 0.3875076
vt -0.9999604 0.3875076
vt 1.000058 0.4910619
vt -0.9999604 0.4910619
vt -1.000058 0.1153981
vt 0.9999604 0.1153981
vt -1.000058 0.0118441
vt 0.9999604 0.0118441
vt -0.5705218 0.0118441
vt -0.4910619 0.1153981
vt 0.2955163 -0.4881633
vt -0.3875076 0.1948577
vt -0.2669157 0.2448078
vt -0.1375046 0.2618446
vt -0.008093418 0.2448069
vt 0.1124988 0.1948558
vt 0.2160537 0.1153954
vt 0.2955144 0.0118409
vt 0.3454657 -0.1087508
vt 0.3625035 -0.2381615
vt 0.3454667 -0.367572
vt -0.9999604 -0.5705218
vt -0.9999604 0.2955163
vt 1.000058 -0.5705218
vt 1.000058 0.2955163
vt 0.5705218 0.0118441
vt -0.2955163 -0.4881633
vt 0.4910619 0.1153981
vt 0.3875076 0.1948577
vt 0.2669157 0.2448078
vt 0.1375046 0.2618446
vt 0.008093418 0.2448069
vt -0.1124988 0.1948558
vt -0.2160537 0.1153954
vt -0.2955144 0.0118409
vt -0.3454657 -0.1087508
vt -0.3625035 -0.2381615
vt -0.3454667 -0.367572
vt 0.6821213 0.01854188
vt -0.3571159 -0.581462
vt 0.6321194 0.105148
vt -0.4071179 -0.4948559
vt 1.100039 -0.4071179
vt -1.100041 -0.4071179
vt 1.100039 0.6321194
vt -1.100041 0.6321194
vt 1.100039 -0.4948559
vt 1.100039 -0.581462
vt -1.100041 -0.4948562
vt -1.100041 -0.5814623
vt -1.100039 0.01854188
vt -1.100039 0.105148
vt 1.100041 0.01854162
vt 1.100041 0.1051477
vt -1.100041 0.3571159
vt 1.100039 0.3571159
vt -1.100041 -0.6821213
vt 1.100039 -0.6821213
vt 0.3571159 -0.5814623
vt -0.6821213 0.01854162
vt 0.4071179 -0.4948562
vt -0.6321194 0.1051477
vt 0.7000396 -0.2381607
vt 0.9000416 -0.2381607
vt 0.7000396 -0.3934528
vt 0.9000416 -0.3934528
vt 0.9000416 -0.08286843
vt 0.7000396 -0.08286843
vt 0.7000396 0.06184112
vt 0.9000416 0.06184112
vt 0.7000396 0.1861062
vt 0.9000416 0.1861062
vt 0.7000396 -0.5381618
vt 0.9000416 -0.5381618
vt 0.7000396 -0.2867648
vt 0.7000396 -0.162499
vt 0.9000416 -0.2867648
vt 0.9000416 -0.162499
vt 0.7000396 -0.01778857
vt 0.9000416 -0.01778857
vt 0.7000396 0.1375046
vt 0.9000416 0.1375046
vt 0.7000396 0.2927975
vt 0.9000416 0.2927975
vt 0.9000416 0.4375073
vt 0.7000396 0.4375073
vt 0.9000416 0.5617722
vt 0.7000396 0.5617722
vt -0.9000416 0.1861104
vt -0.7000396 0.1861104
vt -0.9000416 0.06184626
vt -0.7000396 0.06184626
vt 0.7000396 -0.6571238
vt 0.7000396 -0.4457313
vt 0.9000416 -0.6571238
vt 0.9000416 -0.4457313
vt 0.7000396 0.1707281
vt 0.7000396 0.3821205
vt 0.9000416 0.1707281
vt 0.9000416 0.3821205
vt 0.7000396 0.04045287
vt 0.7000396 0.1141649
vt 0.9000416 0.04045287
vt 0.9000416 0.1141649
vt -0.7000396 0.01350738
vt -0.7000396 -0.06020426
vt -0.9000416 0.01350738
vt -0.9000416 -0.06020426
vt 0.9000416 -0.04538651
vt 0.7000396 -0.04538651
vt 0.9000416 -0.1375034
vt 0.7000396 -0.1375034
vt 0.9000416 -0.2296201
vt 0.7000396 -0.2296201
vt 0.7000396 -0.3154592
vt 0.9000416 -0.3154592
vt 0.7000396 -0.3891707
vt 0.9000416 -0.3891707
vt 0.7000396 0.01350985
vt 0.9000416 0.01350985
vt 0.7000396 -0.06020123
vt 0.9000416 -0.06020123
vt -0.7000396 -0.1460432
vt -0.9000416 -0.1460432
vt -0.9000416 -0.2381595
vt -0.7000396 -0.2381595
vt -0.9000416 -0.3302758
vt -0.7000396 -0.3302758
vt -0.9000416 -0.4161143
vt -0.7000396 -0.4161143
vt -0.6571238 0.06184626
vt -0.5617722 0.1861104
vt -0.4457313 -0.06020123
vt -0.4375073 0.2814615
vt -0.2927975 0.3414013
vt -0.1375046 0.3618451
vt -0.3891707 0.01350985
vt -0.3154592 0.07007021
vt -0.2296201 0.1056254
vt 0.01778857 0.3413998
vt -0.1375034 0.1177523
vt -0.04538651 0.1056245
vt 0.162499 0.2814585
vt 0.04045287 0.07006848
vt 0.1141649 0.01350738
vt 0.2867648 0.1861062
vt 0.1707263 -0.06020426
vt 0.3821176 0.06184112
vt 0.2062825 -0.1460432
vt 0.2184104 -0.2381595
vt 0.4420592 -0.08286843
vt 0.2062834 -0.3302758
vt 0.1707281 -0.4161143
vt 0.3821205 -0.5381618
vt 0.4625047 -0.2381607
vt 0.4420607 -0.3934528
vt 0.6571238 0.06184626
vt 0.4457313 -0.06020123
vt 0.5617722 0.1861104
vt 0.4375073 0.2814615
vt 0.2927975 0.3414013
vt 0.1375046 0.3618451
vt 0.3891707 0.01350985
vt 0.3154592 0.07007021
vt 0.2296201 0.1056254
vt -0.01778857 0.3413998
vt 0.1375034 0.1177523
vt 0.04538651 0.1056245
vt -0.162499 0.2814585
vt -0.04045287 0.07006848
vt -0.2867648 0.1861062
vt -0.1141649 0.01350738
vt -0.1707263 -0.06020426
vt -0.3821176 0.06184112
vt -0.2062825 -0.1460432
vt -0.2184104 -0.2381595
vt -0.4420592 -0.08286843
vt -0.2062834 -0.3302758
vt -0.1707281 -0.4161143
vt -0.3821205 -0.5381618
vt -0.4625047 -0.2381607
vt -0.4420607 -0.3934528
vt -0.8999605 -0.2381602
vt -0.6999588 -0.2381602
vt -0.8999605 -0.3934522
vt -0.6999588 -0.3934522
vt -0.6999588 -0.08286799
vt -0.8999605 -0.08286799
vt -0.8999605 0.06184143
vt -0.6999588 0.06184143
vt -0.8999605 0.1861064
vt -0.6999588 0.1861064
vt -0.8999605 -0.5381612
vt -0.6999588 -0.5381612
vt -0.8999605 -0.2867645
vt -0.8999605 -0.162499
vt -0.6999588 -0.2867645
vt -0.6999588 -0.162499
vt -0.8999605 -0.01778885
vt -0.6999588 -0.01778885
vt -0.8999605 0.137504
vt -0.6999588 0.137504
vt -0.8999605 0.2927968
vt -0.6999588 0.2927968
vt -0.6999588 0.4375064
vt -0.8999605 0.4375064
vt -0.6999588 0.5617712
vt -0.8999605 0.5617712
vt 0.6999588 0.1861098
vt 0.8999605 0.1861098
vt 0.6999588 0.06184563
vt 0.8999605 0.06184563
vt -0.8999605 -0.6571227
vt -0.8999605 -0.4457307
vt -0.6999588 -0.6571227
vt -0.6999588 -0.4457307
vt -0.8999605 0.1707274
vt -0.8999605 0.3821194
vt -0.6999588 0.1707274
vt -0.6999588 0.3821194
vt -0.8999605 0.04045287
vt -0.8999605 0.1141648
vt -0.6999588 0.04045287
vt -0.6999588 0.1141648
vt 0.8999605 0.01350748
vt 0.8999605 -0.06020407
vt 0.6999588 0.01350748
vt 0.6999588 -0.06020407
vt -0.6999588 -0.04538634
vt -0.8999605 -0.04538634
vt -0.6999588 -0.137503
vt -0.8999605 -0.137503
vt -0.6999588 -0.2296197
vt -0.8999605 -0.2296197
vt -0.8999605 -0.3154586
vt -0.6999588 -0.3154586
vt -0.8999605 -0.3891701
vt -0.6999588 -0.3891701
vt -0.8999605 0.01350949
vt -0.6999588 0.01350949
vt -0.8999605 -0.0602016
vt -0.6999588 -0.0602016
vt 0.8999605 -0.1460429
vt 0.6999588 -0.1460429
vt 0.6999588 -0.2381592
vt 0.8999605 -0.2381592
vt 0.6999588 -0.3302754
vt 0.8999605 -0.3302754
vt 0.6999588 -0.4161139
vt 0.8999605 -0.4161139
vt -0.6571227 0.06184563
vt -0.5617712 0.1861098
vt -0.4457307 -0.0602016
vt -0.4375064 0.2814609
vt -0.2927968 0.3414009
vt -0.137504 0.3618448
vt -0.3891701 0.01350949
vt -0.3154586 0.07006989
vt -0.2296197 0.1056251
vt 0.01778885 0.3413996
vt -0.137503 0.1177521
vt -0.04538634 0.1056244
vt 0.1141648 0.01350748
vt 0.2867645 0.1861064
vt 0.170726 -0.06020407
vt 0.382117 0.06184143
vt 0.2062821 -0.1460429
vt 0.2184098 -0.2381592
vt 0.4420584 -0.08286799
vt 0.2062828 -0.3302754
vt 0.1707274 -0.4161139
vt 0.3821194 -0.5381612
vt 0.4625037 -0.2381602
vt 0.4420596 -0.3934522
vt 0.6571227 0.06184563
vt 0.4457307 -0.0602016
vt 0.5617712 0.1861098
vt 0.4375064 0.2814609
vt 0.2927968 0.3414009
vt 0.137504 0.3618448
vt 0.3891701 0.01350949
vt 0.3154586 0.07006989
vt 0.2296197 0.1056251
vt -0.01778885 0.3413996
vt 0.137503 0.1177521
vt 0.04538634 0.1056244
vt -0.2867645 0.1861064
vt -0.1141648 0.01350748
vt -0.170726 -0.06020407
vt -0.382117 0.06184143
vt -0.2062821 -0.1460429
vt -0.2184098 -0.2381592
vt -0.4420584 -0.08286799
vt -0.2062828 -0.3302754
vt -0.1707274 -0.4161139
vt -0.3821194 -0.5381612
vt -0.4625037 -0.2381602
vt -0.4420596 -0.3934522

usemtl _defaultMat(Clone)

f 3/3/2 2/2/1 1/1/1
f 2/2/1 3/3/2 4/4/2
f 5/5/3 4/4/2 3/3/2
f 4/4/2 5/5/3 6/6/3
f 2/2/1 7/7/4 1/1/1
f 7/7/4 2/2/1 8/8/4
f 9/9/5 6/6/3 5/5/3
f 6/6/3 9/9/5 10/10/5
f 8/8/4 11/11/6 7/7/4
f 11/11/6 8/8/4 12/12/6
f 12/15/6 13/14/7 11/13/6
f 13/14/7 12/15/6 14/16/7
f 14/16/7 15/17/8 13/14/7
f 15/17/8 14/16/7 16/18/8
f 16/18/8 17/19/9 15/17/8
f 17/19/9 16/18/8 18/20/9
f 18/20/9 19/21/10 17/19/9
f 19/21/10 18/20/9 20/22/10
f 21/23/11 19/21/10 20/22/10
f 19/21/10 21/23/11 22/24/11
f 23/25/12 22/24/11 21/23/11
f 22/24/11 23/25/12 24/26/12
f 25/29/13 24/28/12 23/27/12
f 24/28/12 25/29/13 26/30/13
f 9/33/14 24/32/14 26/31/14
f 24/32/14 9/33/14 22/34/14
f 22/34/14 9/33/14 19/35/14
f 19/35/14 9/33/14 17/36/14
f 17/36/14 9/33/14 15/37/14
f 15/37/14 9/33/14 13/38/14
f 13/38/14 9/33/14 11/39/14
f 11/39/14 9/33/14 7/40/14
f 7/40/14 9/33/14 1/41/14
f 1/41/14 9/33/14 3/42/14
f 3/42/14 9/33/14 5/43/14
f 25/46/15 9/45/15 26/44/15
f 9/45/15 25/46/15 10/47/15
f 23/50/16 10/49/16 25/48/16
f 10/49/16 23/50/16 21/51/16
f 10/49/16 21/51/16 20/52/16
f 10/49/16 20/52/16 18/53/16
f 10/49/16 18/53/16 16/54/16
f 10/49/16 16/54/16 14/55/16
f 10/49/16 14/55/16 12/56/16
f 10/49/16 12/56/16 8/57/16
f 10/49/16 8/57/16 2/58/16
f 10/49/16 2/58/16 4/59/16
f 10/49/16 4/59/16 6/60/16

usemtl tan(Clone)

f 29/63/17 28/62/17 27/61/17
f 28/62/17 29/63/17 30/64/17
f 29/67/18 31/66/18 30/65/18
f 31/66/18 29/67/18 32/68/18
f 31/71/19 28/70/19 30/69/19
f 28/70/19 31/71/19 33/72/19
f 34/75/20 29/74/20 27/73/20
f 29/74/20 34/75/20 32/76/20
f 34/79/21 28/78/21 33/77/21
f 28/78/21 34/79/21 27/80/21
f 31/83/22 34/82/22 33/81/22
f 34/82/22 31/83/22 32/84/22
f 37/87/24 36/86/23 35/85/23
f 36/86/23 37/87/24 38/88/24
f 39/89/25 35/85/23 36/86/23
f 35/85/23 39/89/25 40/90/25
f 39/89/25 41/91/26 40/90/25
f 41/91/26 39/89/25 42/92/26
f 42/92/26 43/93/27 41/91/26
f 43/93/27 42/92/26 44/94/27
f 45/95/28 38/88/24 37/87/24
f 38/88/24 45/95/28 46/96/28
f 44/99/27 47/98/7 43/97/27
f 47/98/7 44/99/27 48/100/7
f 48/100/7 49/101/29 47/98/7
f 49/101/29 48/100/7 50/102/29
f 50/102/29 51/103/30 49/101/29
f 51/103/30 50/102/29 52/104/30
f 52/104/30 53/105/31 51/103/30
f 53/105/31 52/104/30 54/106/31
f 55/107/32 53/105/31 54/106/31
f 53/105/31 55/107/32 56/108/32
f 57/109/33 56/108/32 55/107/32
f 56/108/32 57/109/33 58/110/33
f 59/113/34 58/112/33 57/111/33
f 58/112/33 59/113/34 60/114/34
f 59/117/15 61/116/15 60/115/15
f 61/116/15 59/117/15 62/118/15
f 64/121/15 45/120/15 63/119/15
f 45/120/15 64/121/15 46/122/15
f 67/125/15 66/124/35 65/123/15
f 66/124/35 67/125/15 68/126/35
f 68/129/35 69/128/36 66/127/35
f 69/128/36 68/129/35 70/130/36
f 65/123/15 71/131/37 67/125/15
f 71/131/37 65/123/15 72/132/37
f 72/132/37 73/133/38 71/131/37
f 73/133/38 72/132/37 74/134/38
f 74/134/38 75/135/39 73/133/38
f 75/135/39 74/134/38 76/136/39
f 77/137/40 75/135/39 76/136/39
f 75/135/39 77/137/40 78/138/40
f 79/139/41 78/138/40 77/137/40
f 78/138/40 79/139/41 80/140/41
f 61/143/42 80/142/41 79/141/41
f 80/142/41 61/143/42 62/144/42
f 70/130/36 81/145/43 69/128/36
f 81/145/43 70/130/36 82/146/43
f 83/147/44 81/145/43 82/146/43
f 81/145/43 83/147/44 84/148/44
f 85/149/45 84/148/44 83/147/44
f 84/148/44 85/149/45 86/150/45
f 64/151/46 86/150/45 85/149/45
f 86/150/45 64/151/46 63/152/46
f 61/155/14 58/154/14 60/153/14
f 58/154/14 61/155/14 56/156/14
f 56/156/14 61/155/14 53/157/14
f 53/157/14 61/155/14 51/158/14
f 51/158/14 61/155/14 79/159/14
f 51/158/14 79/159/14 77/160/14
f 51/158/14 77/160/14 76/161/14
f 51/158/14 76/161/14 49/162/14
f 49/162/14 76/161/14 74/163/14
f 49/162/14 74/163/14 72/164/14
f 49/162/14 72/164/14 47/165/14
f 47/165/14 72/164/14 65/166/14
f 47/165/14 65/166/14 66/167/14
f 47/165/14 66/167/14 43/168/14
f 43/168/14 66/167/14 69/169/14
f 43/168/14 69/169/14 41/170/14
f 41/170/14 69/169/14 81/171/14
f 41/170/14 81/171/14 84/172/14
f 41/170/14 84/172/14 40/173/14
f 40/173/14 84/172/14 86/174/14
f 40/173/14 86/174/14 63/175/14
f 40/173/14 63/175/14 45/176/14
f 40/173/14 45/176/14 35/177/14
f 35/177/14 45/176/14 37/178/14
f 57/181/16 62/180/16 59/179/16
f 62/180/16 57/181/16 55/182/16
f 62/180/16 55/182/16 54/183/16
f 62/180/16 54/183/16 52/184/16
f 62/180/16 52/184/16 80/185/16
f 80/185/16 52/184/16 78/186/16
f 78/186/16 52/184/16 75/187/16
f 75/187/16 52/184/16 50/188/16
f 75/187/16 50/188/16 73/189/16
f 73/189/16 50/188/16 71/190/16
f 71/190/16 50/188/16 48/191/16
f 71/190/16 48/191/16 67/192/16
f 67/192/16 48/191/16 44/193/16
f 67/192/16 44/193/16 68/194/16
f 68/194/16 44/193/16 70/195/16
f 70/195/16 44/193/16 42/196/16
f 70/195/16 42/196/16 82/197/16
f 82/197/16 42/196/16 83/198/16
f 83/198/16 42/196/16 39/199/16
f 83/198/16 39/199/16 85/200/16
f 85/200/16 39/199/16 64/201/16
f 64/201/16 39/199/16 46/202/16
f 46/202/16 39/199/16 36/203/16
f 46/202/16 36/203/16 38/204/16
f 89/207/48 88/206/47 87/205/47
f 88/206/47 89/207/48 90/208/48
f 91/209/49 87/205/47 88/206/47
f 87/205/47 91/209/49 92/210/49
f 91/209/49 93/211/50 92/210/49
f 93/211/50 91/209/49 94/212/50
f 94/212/50 95/213/51 93/211/50
f 95/213/51 94/212/50 96/214/51
f 97/215/52 90/208/48 89/207/48
f 90/208/48 97/215/52 98/216/52
f 96/219/51 99/218/7 95/217/51
f 99/218/7 96/219/51 100/220/7
f 100/220/7 101/221/53 99/218/7
f 101/221/53 100/220/7 102/222/53
f 102/222/53 103/223/54 101/221/53
f 103/223/54 102/222/53 104/224/54
f 104/224/54 105/225/55 103/223/54
f 105/225/55 104/224/54 106/226/55
f 107/227/56 105/225/55 106/226/55
f 105/225/55 107/227/56 108/228/56
f 109/229/57 108/228/56 107/227/56
f 108/228/56 109/229/57 110/230/57
f 111/233/58 110/232/57 109/231/57
f 110/232/57 111/233/58 112/234/58
f 111/237/15 113/236/15 112/235/15
f 113/236/15 111/237/15 114/238/15
f 116/241/15 97/240/15 115/239/15
f 97/240/15 116/241/15 98/242/15
f 119/245/15 118/244/59 117/243/15
f 118/244/59 119/245/15 120/246/59
f 120/249/59 121/248/60 118/247/59
f 121/248/60 120/249/59 122/250/60
f 117/243/15 123/251/61 119/245/15
f 123/251/61 117/243/15 124/252/61
f 124/252/61 125/253/62 123/251/61
f 125/253/62 124/252/61 126/254/62
f 126/254/62 127/255/63 125/253/62
f 127/255/63 126/254/62 128/256/63
f 129/257/64 127/255/63 128/256/63
f 127/255/63 129/257/64 130/258/64
f 131/259/65 130/258/64 129/257/64
f 130/258/64 131/259/65 132/260/65
f 113/263/66 132/262/65 131/261/65
f 132/262/65 113/263/66 114/264/66
f 122/250/60 133/265/67 121/248/60
f 133/265/67 122/250/60 134/266/67
f 135/267/68 133/265/67 134/266/67
f 133/265/67 135/267/68 136/268/68
f 137/269/69 136/268/68 135/267/68
f 136/268/68 137/269/69 138/270/69
f 116/271/70 138/270/69 137/269/69
f 138/270/69 116/271/70 115/272/70
f 113/275/14 110/274/14 112/273/14
f 110/274/14 113/275/14 108/276/14
f 108/276/14 113/275/14 105/277/14
f 105/277/14 113/275/14 103/278/14
f 103/278/14 113/275/14 131/279/14
f 103/278/14 131/279/14 129/280/14
f 103/278/14 129/280/14 128/281/14
f 103/278/14 128/281/14 101/282/14
f 101/282/14 128/281/14 126/283/14
f 101/282/14 126/283/14 124/284/14
f 101/282/14 124/284/14 99/165/14
f 99/165/14 124/284/14 117/166/14
f 99/165/14 117/166/14 118/285/14
f 99/165/14 118/285/14 95/286/14
f 95/286/14 118/285/14 121/287/14
f 95/286/14 121/287/14 93/288/14
f 93/288/14 121/287/14 133/289/14
f 93/288/14 133/289/14 136/290/14
f 93/288/14 136/290/14 92/291/14
f 92/291/14 136/290/14 138/292/14
f 92/291/14 138/292/14 115/293/14
f 92/291/14 115/293/14 97/294/14
f 92/291/14 97/294/14 87/295/14
f 87/295/14 97/294/14 89/296/14
f 109/299/16 114/298/16 111/297/16
f 114/298/16 109/299/16 107/300/16
f 114/298/16 107/300/16 106/301/16
f 114/298/16 106/301/16 104/302/16
f 114/298/16 104/302/16 132/303/16
f 132/303/16 104/302/16 130/304/16
f 130/304/16 104/302/16 127/305/16
f 127/305/16 104/302/16 102/306/16
f 127/305/16 102/306/16 125/307/16
f 125/307/16 102/306/16 123/308/16
f 123/308/16 102/306/16 100/191/16
f 123/308/16 100/191/16 119/192/16
f 119/192/16 100/191/16 96/309/16
f 119/192/16 96/309/16 120/310/16
f 120/310/16 96/309/16 122/311/16
f 122/311/16 96/309/16 94/312/16
f 122/311/16 94/312/16 134/313/16
f 134/313/16 94/312/16 135/314/16
f 135/314/16 94/312/16 91/315/16
f 135/314/16 91/315/16 137/316/16
f 137/316/16 91/315/16 116/317/16
f 116/317/16 91/315/16 98/318/16
f 98/318/16 91/315/16 88/319/16
f 98/318/16 88/319/16 90/320/16

